<svg width="16" height="16" viewBox="0 0 16 16" fill="none"
         xmlns="http://www.w3.org/2000/svg">
        <path fill-rule="evenodd" clip-rule="evenodd"
              d="M10.2786 3.76197C10.1867 3.61506 10.0512 3.50047 9.8911 3.43415C9.73099 3.36784 9.55418 3.35309 9.38529 3.39197L8.18662 3.6673C8.06378 3.69553 7.93613 3.69553 7.81329 3.6673L6.61462 3.39197C6.44573 3.35309 6.26892 3.36784 6.1088 3.43415C5.94869 3.50047 5.81323 3.61506 5.72129 3.76197L5.06795 4.80463C5.00129 4.9113 4.91129 5.0013 4.80462 5.06863L3.76195 5.72197C3.6153 5.81383 3.50088 5.94906 3.43458 6.10891C3.36827 6.26875 3.35338 6.44527 3.39195 6.61397L3.66729 7.81397C3.69542 7.93659 3.69542 8.064 3.66729 8.18663L3.39195 9.38597C3.35323 9.55476 3.36805 9.73142 3.43436 9.8914C3.50067 10.0514 3.61517 10.1867 3.76195 10.2786L4.80462 10.932C4.91129 10.9986 5.00129 11.0886 5.06862 11.1953L5.72195 12.238C5.90995 12.5386 6.26862 12.6873 6.61462 12.608L7.81329 12.3326C7.93613 12.3044 8.06378 12.3044 8.18662 12.3326L9.38595 12.608C9.55475 12.6467 9.73141 12.6319 9.89139 12.5656C10.0514 12.4993 10.1867 12.3847 10.2786 12.238L10.932 11.1953C10.9986 11.0886 11.0886 10.9986 11.1953 10.932L12.2386 10.2786C12.3854 10.1866 12.4999 10.0511 12.5661 9.89099C12.6322 9.73088 12.6469 9.55412 12.608 9.3853L12.3333 8.18663C12.3051 8.06379 12.3051 7.93614 12.3333 7.8133L12.6086 6.61397C12.6474 6.44524 12.6327 6.26863 12.5665 6.10865C12.5003 5.94868 12.3859 5.81329 12.2393 5.7213L11.196 5.06797C11.0894 5.00118 10.9994 4.91115 10.9326 4.80463L10.2786 3.76197ZM9.94329 6.5133C9.98452 6.43748 9.99474 6.34862 9.97179 6.26541C9.94884 6.18221 9.89451 6.11116 9.82023 6.06719C9.74596 6.02323 9.65753 6.0098 9.57355 6.02971C9.48957 6.04962 9.41658 6.10134 9.36995 6.17397L7.62662 9.12463L6.57395 8.11663C6.54272 8.08457 6.50536 8.05912 6.46408 8.04181C6.4228 8.0245 6.37846 8.01567 6.3337 8.01587C6.28894 8.01606 6.24468 8.02527 6.20356 8.04294C6.16243 8.06061 6.12529 8.08639 6.09434 8.11872C6.06339 8.15106 6.03928 8.1893 6.02342 8.23116C6.00757 8.27302 6.00032 8.31764 6.00208 8.36237C6.00385 8.40709 6.01461 8.451 6.03372 8.49148C6.05282 8.53196 6.07988 8.56817 6.11329 8.59797L7.46929 9.8973C7.50558 9.932 7.54924 9.95806 7.59702 9.97352C7.64479 9.98898 7.69544 9.99344 7.74518 9.98659C7.79493 9.97973 7.84248 9.96172 7.88428 9.93391C7.92609 9.90609 7.96107 9.86919 7.98662 9.82597L9.94329 6.5133Z"
              fill="#3C82F6"/>
    </svg>
