<svg width="16" height="18" viewBox="0 0 16 18" fill="none" xmlns="http://www.w3.org/2000/svg">
    <g clip-path="url(#clip0_190_1300)">
        <rect x="-0.000976562" y="0.984375" width="16" height="16.0393" fill="#030269"/>
        <path fill-rule="evenodd" clip-rule="evenodd"
              d="M5.69194 8.6995C5.67925 8.77385 5.66998 8.84948 5.6643 8.92623C5.65939 8.99263 5.65727 9.05858 5.65783 9.12399L7.5492 9.23711C7.80215 9.25224 8.02476 9.09033 8.09628 8.85851C8.09919 8.98727 8.14833 9.11207 8.23539 9.20838C8.10406 9.14673 7.94837 9.13798 7.80338 9.19692L5.83342 9.99767C5.88777 10.1304 5.95387 10.2574 6.03053 10.3771L7.9637 9.59135C8.02157 9.56783 8.08754 9.59567 8.11106 9.65353L8.79794 11.3433C8.93323 11.2968 9.06327 11.2383 9.18668 11.169L8.50549 9.4932C8.48113 9.43328 8.44722 9.38011 8.40622 9.33474L10.1348 10.1883C10.1996 10.0629 10.2536 9.93069 10.2955 9.79286L8.58505 8.9482C8.52905 8.92055 8.50607 8.85273 8.53372 8.79672L9.35386 7.13588C9.23673 7.05669 9.11194 6.98762 8.98067 6.93002L8.15196 8.60821C8.14015 8.63213 8.13027 8.65651 8.12228 8.68117L8.23837 6.7402C8.22655 6.73915 8.21471 6.73819 8.20284 6.73731C8.07046 6.72752 7.93982 6.7288 7.81183 6.74037L7.69426 8.70596C7.69053 8.76831 7.63697 8.81583 7.57462 8.8121L5.69194 8.6995Z"
              fill="#FF897F"/>
    </g>
    <defs>
        <clipPath id="clip0_190_1300">
            <rect y="0.980225" width="16" height="16.0393" rx="8" fill="white"/>
        </clipPath>
    </defs>
</svg>
